<svg width="0" height="0" class="hidden">
    <symbol fill="none" xmlns="http://www.w3.org/2000/svg" viewBox="0 0 32 32" id="camera">
        <path d="M9.01333 29.3333H22.9867C26.6667 29.3333 28.1333 27.08 28.3067 24.3333L29 13.32C29.1867 10.44 26.8933 7.99999 24 7.99999C23.1867 7.99999 22.44 7.53332 22.0667 6.81332L21.1067 4.87999C20.4933 3.66666 18.8933 2.66666 17.5333 2.66666H14.48C13.1067 2.66666 11.5067 3.66666 10.8933 4.87999L9.93333 6.81332C9.56 7.53332 8.81333 7.99999 8 7.99999C5.10666 7.99999 2.81333 10.44 3 13.32L3.69333 24.3333C3.85333 27.08 5.33333 29.3333 9.01333 29.3333Z" stroke="#5454D4" stroke-width="2" stroke-linecap="round" stroke-linejoin="round"></path>
        <path d="M14 10.6667H18" stroke="#5454D4" stroke-width="2" stroke-linecap="round" stroke-linejoin="round"></path>
        <path d="M16 24C18.3867 24 20.3333 22.0533 20.3333 19.6667C20.3333 17.28 18.3867 15.3333 16 15.3333C13.6133 15.3333 11.6667 17.28 11.6667 19.6667C11.6667 22.0533 13.6133 24 16 24Z" stroke="#5454D4" stroke-width="2" stroke-linecap="round" stroke-linejoin="round"></path>
    </symbol>
    <symbol fill="none" xmlns="http://www.w3.org/2000/svg" viewBox="0 0 32 32" id="code">
        <path d="M12 17.3333C11.12 17.7733 10.3867 18.4267 9.83999 19.24C9.53332 19.7067 9.53332 20.2933 9.83999 20.76C10.3867 21.5733 11.12 22.2267 12 22.6667" stroke="#5454D4" stroke-width="2" stroke-linecap="round" stroke-linejoin="round"></path>
        <path d="M20.28 17.3333C21.16 17.7733 21.8933 18.4267 22.44 19.24C22.7467 19.7067 22.7467 20.2933 22.44 20.76C21.8933 21.5733 21.16 22.2267 20.28 22.6667" stroke="#5454D4" stroke-width="2" stroke-linecap="round" stroke-linejoin="round"></path>
        <path d="M12 29.3333H20C26.6667 29.3333 29.3333 26.6667 29.3333 20V12C29.3333 5.33333 26.6667 2.66667 20 2.66667H12C5.33332 2.66667 2.66666 5.33333 2.66666 12V20C2.66666 26.6667 5.33332 29.3333 12 29.3333Z" stroke="#5454D4" stroke-width="2" stroke-linecap="round" stroke-linejoin="round"></path>
        <path d="M2.97336 10.68L28.6 10.6667" stroke="#5454D4" stroke-width="2" stroke-linecap="round" stroke-linejoin="round"></path>
    </symbol>
    <symbol fill="none" xmlns="http://www.w3.org/2000/svg" viewBox="0 0 32 32" id="code-yellow">
        <path d="M12 17.3333C11.12 17.7733 10.3867 18.4267 9.83999 19.24C9.53332 19.7067 9.53332 20.2933 9.83999 20.76C10.3867 21.5733 11.12 22.2267 12 22.6667" stroke="#FEDC5A" stroke-width="2" stroke-linecap="round" stroke-linejoin="round"></path>
        <path d="M20.28 17.3333C21.16 17.7733 21.8933 18.4267 22.44 19.24C22.7467 19.7067 22.7467 20.2933 22.44 20.76C21.8933 21.5733 21.16 22.2267 20.28 22.6667" stroke="#FEDC5A" stroke-width="2" stroke-linecap="round" stroke-linejoin="round"></path>
        <path d="M12 29.3333H20C26.6667 29.3333 29.3333 26.6667 29.3333 20V12C29.3333 5.33333 26.6667 2.66667 20 2.66667H12C5.33332 2.66667 2.66666 5.33333 2.66666 12V20C2.66666 26.6667 5.33332 29.3333 12 29.3333Z" stroke="#FEDC5A" stroke-width="2" stroke-linecap="round" stroke-linejoin="round"></path>
        <path d="M2.97336 10.68L28.6 10.6667" stroke="#FEDC5A" stroke-width="2" stroke-linecap="round" stroke-linejoin="round"></path>
    </symbol>
    <symbol fill="none" xmlns="http://www.w3.org/2000/svg" viewBox="0 0 32 32" id="layer">
        <path d="M17.3467 3.89333L25.2133 7.38667C27.48 8.38667 27.48 10.04 25.2133 11.04L17.3467 14.5333C16.4533 14.9333 14.9867 14.9333 14.0933 14.5333L6.22666 11.04C3.96 10.04 3.96 8.38667 6.22666 7.38667L14.0933 3.89333C14.9867 3.49333 16.4533 3.49333 17.3467 3.89333Z" stroke="#F04037" stroke-width="2" stroke-linecap="round" stroke-linejoin="round"></path>
        <path d="M4 14.6667C4 15.7867 4.84 17.08 5.86667 17.5333L14.92 21.56C15.6133 21.8667 16.4 21.8667 17.08 21.56L26.1333 17.5333C27.16 17.08 28 15.7867 28 14.6667" stroke="#F04037" stroke-width="2" stroke-linecap="round" stroke-linejoin="round"></path>
        <path d="M4 21.3333C4 22.5733 4.73333 23.6933 5.86667 24.2L14.92 28.2267C15.6133 28.5333 16.4 28.5333 17.08 28.2267L26.1333 24.2C27.2667 23.6933 28 22.5733 28 21.3333" stroke="#F04037" stroke-width="2" stroke-linecap="round" stroke-linejoin="round"></path>
    </symbol>
    <symbol fill="none" xmlns="http://www.w3.org/2000/svg" viewBox="0 0 24 24" id="menu-toggle">
        <path d="M19.0001 7H5.00006" stroke="white" stroke-width="2.01111" stroke-linecap="round"></path>
        <path d="M19.0001 12H9.00006" stroke="white" stroke-width="2.01111" stroke-linecap="round"></path>
        <path d="M19.0001 17H13.0001" stroke="white" stroke-width="2.01111" stroke-linecap="round"></path>
    </symbol>
    <symbol fill="none" xmlns="http://www.w3.org/2000/svg" viewBox="0 0 32 32" id="video-play">
        <path d="M29.3333 20V12C29.3333 5.33332 26.6667 2.66666 20 2.66666H12C5.33332 2.66666 2.66666 5.33332 2.66666 12V20C2.66666 26.6667 5.33332 29.3333 12 29.3333H20C26.6667 29.3333 29.3333 26.6667 29.3333 20Z" stroke="#F04037" stroke-width="2" stroke-linecap="round" stroke-linejoin="round"></path>
        <path d="M3.35999 9.47998H28.64" stroke="#F04037" stroke-width="2" stroke-linecap="round" stroke-linejoin="round"></path>
        <path d="M11.36 2.81332V9.29332" stroke="#F04037" stroke-width="2" stroke-linecap="round" stroke-linejoin="round"></path>
        <path d="M20.64 2.81332V8.69332" stroke="#F04037" stroke-width="2" stroke-linecap="round" stroke-linejoin="round"></path>
        <path d="M13 19.2667V17.6667C13 15.6133 14.4533 14.7733 16.2267 15.8L17.6133 16.6L19 17.4C20.7733 18.4267 20.7733 20.1067 19 21.1333L17.6133 21.9333L16.2267 22.7333C14.4533 23.76 13 22.92 13 20.8667V19.2667V19.2667Z" stroke="#F04037" stroke-width="2" stroke-miterlimit="10" stroke-linecap="round" stroke-linejoin="round"></path>
    </symbol>
    <symbol fill="none" xmlns="http://www.w3.org/2000/svg" viewBox="0 0 32 32" id="align-vertically">
        <path d="M23.2 25.6667H8.80003C6.80003 25.6667 6.00003 24.8133 6.00003 22.6933V21.3067C6.00003 19.1867 6.80003 18.3333 8.80003 18.3333H23.2C25.2 18.3333 26 19.1867 26 21.3067V22.6933C26 24.8133 25.2 25.6667 23.2 25.6667Z" stroke="#FEDC5A" stroke-width="2" stroke-linecap="round" stroke-linejoin="round"></path>
        <path d="M20.5334 14.3333H11.4667C9.46669 14.3333 8.66669 13.48 8.66669 11.36V9.97333C8.66669 7.85333 9.46669 7 11.4667 7H20.5334C22.5334 7 23.3334 7.85333 23.3334 9.97333V11.36C23.3334 13.48 22.5334 14.3333 20.5334 14.3333Z" stroke="#FEDC5A" stroke-width="2" stroke-linecap="round" stroke-linejoin="round"></path>
        <path d="M16 29.3333V26.1333" stroke="#FEDC5A" stroke-width="2" stroke-linecap="round" stroke-linejoin="round"></path>
        <path d="M16 17.3333V14.6667" stroke="#FEDC5A" stroke-width="2" stroke-linecap="round" stroke-linejoin="round"></path>
        <path d="M16 2.66666V6.25332" stroke="#292D32" stroke-width="2" stroke-linecap="round" stroke-linejoin="round"></path>
    </symbol>
</svg>
